{
    "asset" : {
        "generator" : "Khronos glTF Blender I/O v1.4.40",
        "version" : "2.0"
    },
    "scene" : 0,
    "scenes" : [
        {
            "name" : "Scene",
            "nodes" : [
                1,
                2,
                4,
                6,
                8,
                10,
                11,
                12,
                14,
                16,
                18,
                20,
                22,
                24,
                25,
                26
            ]
        }
    ],
    "nodes" : [
        {
            "name" : "collider.003",
            "scale" : [
                1.9999998807907104,
                2.5799999237060547,
                0.10000001639127731
            ],
            "translation" : [
                0,
                1.3000000715255737,
                0
            ]
        },
        {
            "children" : [
                0
            ],
            "mesh" : 0,
            "name" : "wall.001",
            "rotation" : [
                0,
                0.7071067094802856,
                0,
                0.7071068286895752
            ],
            "translation" : [
                4,
                0,
                3
            ]
        },
        {
            "mesh" : 0,
            "name" : "wall.002",
            "rotation" : [
                0,
                0.7071067094802856,
                0,
                0.7071068286895752
            ],
            "translation" : [
                0,
                0,
                1.0000001192092896
            ]
        },
        {
            "name" : "collider.006",
            "scale" : [
                2,
                2.5799999237060547,
                0.10000002384185791
            ],
            "translation" : [
                0,
                1.3000000715255737,
                0
            ]
        },
        {
            "children" : [
                3
            ],
            "mesh" : 0,
            "name" : "wall.003",
            "translation" : [
                1,
                0,
                0
            ]
        },
        {
            "name" : "collider.007",
            "scale" : [
                2,
                2.5799999237060547,
                0.10000002384185791
            ],
            "translation" : [
                0,
                1.3000000715255737,
                0
            ]
        },
        {
            "children" : [
                5
            ],
            "mesh" : 0,
            "name" : "wall.004",
            "translation" : [
                1,
                0,
                4
            ]
        },
        {
            "name" : "collider.009",
            "scale" : [
                2,
                2.5799999237060547,
                0.10000002384185791
            ],
            "translation" : [
                0,
                1.3000000715255737,
                0
            ]
        },
        {
            "children" : [
                7
            ],
            "mesh" : 0,
            "name" : "wall.006",
            "translation" : [
                3,
                0,
                4
            ]
        },
        {
            "name" : "collider.012",
            "scale" : [
                1.9999998807907104,
                2.5799999237060547,
                0.10000001639127731
            ],
            "translation" : [
                0,
                1.3000000715255737,
                0
            ]
        },
        {
            "children" : [
                9
            ],
            "mesh" : 0,
            "name" : "wall.009",
            "rotation" : [
                0,
                0.7071067094802856,
                0,
                0.7071068286895752
            ],
            "translation" : [
                4,
                0,
                1.0000001192092896
            ]
        },
        {
            "mesh" : 1,
            "name" : "wall_doorway",
            "rotation" : [
                0,
                0.7071067690849304,
                0,
                0.7071068286895752
            ],
            "translation" : [
                0,
                0,
                3
            ]
        },
        {
            "mesh" : 1,
            "name" : "wall_doorway.001",
            "rotation" : [
                0,
                1,
                0,
                7.549790126404332e-08
            ],
            "translation" : [
                3,
                0,
                0
            ]
        },
        {
            "name" : "collider.030",
            "scale" : [
                0.3464999496936798,
                0.30799993872642517,
                0.3519999384880066
            ],
            "translation" : [
                0,
                0.19999992847442627,
                0
            ]
        },
        {
            "children" : [
                13
            ],
            "mesh" : 2,
            "name" : "cardboard_box_closed",
            "translation" : [
                3.56799578666687,
                0,
                1
            ]
        },
        {
            "name" : "collider.025",
            "scale" : [
                0.699999988079071,
                1.6939997673034668,
                0.3999999761581421
            ],
            "translation" : [
                0,
                0.8999999761581421,
                0
            ]
        },
        {
            "children" : [
                15
            ],
            "mesh" : 3,
            "name" : "bookcase_open",
            "rotation" : [
                0,
                -0.7071067094802856,
                0,
                0.7071068286895752
            ],
            "translation" : [
                3.700000047683716,
                0,
                3
            ]
        },
        {
            "name" : "collider.004",
            "scale" : [
                0.699999988079071,
                1.6939997673034668,
                0.3999999761581421
            ],
            "translation" : [
                0,
                0.8999999761581421,
                0
            ]
        },
        {
            "children" : [
                17
            ],
            "mesh" : 3,
            "name" : "bookcase_open.001",
            "rotation" : [
                0,
                -0.7071067094802856,
                0,
                0.7071068286895752
            ],
            "translation" : [
                3.700000047683716,
                0,
                2
            ]
        },
        {
            "name" : "collider.008",
            "scale" : [
                0.3464999496936798,
                0.30799993872642517,
                0.3519999384880066
            ],
            "translation" : [
                0,
                0.19999992847442627,
                0
            ]
        },
        {
            "children" : [
                19
            ],
            "mesh" : 2,
            "name" : "cardboard_box_closed.001",
            "translation" : [
                3.607811212539673,
                0.36828118562698364,
                1.0137659311294556
            ]
        },
        {
            "name" : "collider.010",
            "scale" : [
                0.3464999496936798,
                0.30799993872642517,
                0.3519999384880066
            ],
            "translation" : [
                0,
                0.19999992847442627,
                0
            ]
        },
        {
            "children" : [
                21
            ],
            "mesh" : 2,
            "name" : "cardboard_box_closed.002",
            "translation" : [
                3.607811212539673,
                0.7492491602897644,
                1.0137659311294556
            ]
        },
        {
            "name" : "collider.011",
            "scale" : [
                0.3464999496936798,
                0.30799993872642517,
                0.3519999384880066
            ],
            "translation" : [
                0,
                0.19999992847442627,
                0
            ]
        },
        {
            "children" : [
                23
            ],
            "mesh" : 2,
            "name" : "cardboard_box_closed.003",
            "translation" : [
                3.684893846511841,
                1.2927212715148926,
                2
            ]
        },
        {
            "mesh" : 4,
            "name" : "choinka",
            "rotation" : [
                0,
                0.1736481785774231,
                0,
                0.9848077893257141
            ],
            "translation" : [
                2.6000001430511475,
                0,
                3.1000001430511475
            ]
        },
        {
            "mesh" : 5,
            "name" : "fireplace",
            "rotation" : [
                0,
                0,
                0,
                -1
            ],
            "translation" : [
                1.2947787046432495,
                0,
                0.35212984681129456
            ]
        }
    ],
    "meshes" : [
        {
            "name" : "wall",
            "primitives" : [
                {
                    "attributes" : {
                        "POSITION" : 0,
                        "NORMAL" : 1,
                        "TEXCOORD_0" : 2
                    },
                    "indices" : 3
                }
            ]
        },
        {
            "name" : "wall_doorway",
            "primitives" : [
                {
                    "attributes" : {
                        "POSITION" : 4,
                        "NORMAL" : 5,
                        "TEXCOORD_0" : 6
                    },
                    "indices" : 7
                }
            ]
        },
        {
            "name" : "cardboard_box_closed",
            "primitives" : [
                {
                    "attributes" : {
                        "POSITION" : 8,
                        "NORMAL" : 9,
                        "TEXCOORD_0" : 10
                    },
                    "indices" : 11
                }
            ]
        },
        {
            "name" : "bookcase_open",
            "primitives" : [
                {
                    "attributes" : {
                        "POSITION" : 12,
                        "NORMAL" : 13,
                        "TEXCOORD_0" : 14
                    },
                    "indices" : 15
                }
            ]
        },
        {
            "name" : "choinka",
            "primitives" : [
                {
                    "attributes" : {
                        "POSITION" : 16,
                        "NORMAL" : 17,
                        "TEXCOORD_0" : 18
                    },
                    "indices" : 19
                }
            ]
        },
        {
            "name" : "fireplace",
            "primitives" : [
                {
                    "attributes" : {
                        "POSITION" : 20,
                        "NORMAL" : 21,
                        "TEXCOORD_0" : 22
                    },
                    "indices" : 23
                }
            ]
        }
    ],
    "accessors" : [
        {
            "bufferView" : 0,
            "componentType" : 5126,
            "count" : 30,
            "max" : [
                1.0006762742996216,
                2.579935312271118,
                0.05000000074505806
            ],
            "min" : [
                -0.9999999403953552,
                0,
                -0.0500338077545166
            ],
            "type" : "VEC3"
        },
        {
            "bufferView" : 1,
            "componentType" : 5126,
            "count" : 30,
            "type" : "VEC3"
        },
        {
            "bufferView" : 2,
            "componentType" : 5126,
            "count" : 30,
            "type" : "VEC2"
        },
        {
            "bufferView" : 3,
            "componentType" : 5123,
            "count" : 36,
            "type" : "SCALAR"
        },
        {
            "bufferView" : 4,
            "componentType" : 5126,
            "count" : 128,
            "max" : [
                1.0009125471115112,
                2.5814168453216553,
                0.08918148279190063
            ],
            "min" : [
                -1.0009125471115112,
                0,
                -0.08918149769306183
            ],
            "type" : "VEC3"
        },
        {
            "bufferView" : 5,
            "componentType" : 5126,
            "count" : 128,
            "type" : "VEC3"
        },
        {
            "bufferView" : 6,
            "componentType" : 5126,
            "count" : 128,
            "type" : "VEC2"
        },
        {
            "bufferView" : 7,
            "componentType" : 5123,
            "count" : 180,
            "type" : "SCALAR"
        },
        {
            "bufferView" : 8,
            "componentType" : 5126,
            "count" : 121,
            "max" : [
                0.17562279105186462,
                0.4624432921409607,
                0.17485862970352173
            ],
            "min" : [
                -0.1740943044424057,
                -6.102025508880615e-06,
                -0.1748584508895874
            ],
            "type" : "VEC3"
        },
        {
            "bufferView" : 9,
            "componentType" : 5126,
            "count" : 121,
            "type" : "VEC3"
        },
        {
            "bufferView" : 10,
            "componentType" : 5126,
            "count" : 121,
            "type" : "VEC2"
        },
        {
            "bufferView" : 11,
            "componentType" : 5123,
            "count" : 180,
            "type" : "SCALAR"
        },
        {
            "bufferView" : 12,
            "componentType" : 5126,
            "count" : 524,
            "max" : [
                0.41970619559288025,
                1.8467069864273071,
                0.2728089988231659
            ],
            "min" : [
                -0.4197061359882355,
                0,
                -0.25182369351387024
            ],
            "type" : "VEC3"
        },
        {
            "bufferView" : 13,
            "componentType" : 5126,
            "count" : 524,
            "type" : "VEC3"
        },
        {
            "bufferView" : 14,
            "componentType" : 5126,
            "count" : 524,
            "type" : "VEC2"
        },
        {
            "bufferView" : 15,
            "componentType" : 5123,
            "count" : 960,
            "type" : "SCALAR"
        },
        {
            "bufferView" : 16,
            "componentType" : 5126,
            "count" : 248,
            "max" : [
                0.6570687890052795,
                2.501616954803467,
                0.7587176561355591
            ],
            "min" : [
                -0.6570687890052795,
                0,
                -0.7587176561355591
            ],
            "type" : "VEC3"
        },
        {
            "bufferView" : 17,
            "componentType" : 5126,
            "count" : 248,
            "type" : "VEC3"
        },
        {
            "bufferView" : 18,
            "componentType" : 5126,
            "count" : 248,
            "type" : "VEC2"
        },
        {
            "bufferView" : 19,
            "componentType" : 5123,
            "count" : 276,
            "type" : "SCALAR"
        },
        {
            "bufferView" : 20,
            "componentType" : 5126,
            "count" : 150,
            "max" : [
                0.802765965461731,
                1.3977043628692627,
                0.3016347885131836
            ],
            "min" : [
                -0.802765965461731,
                0,
                -0.3016347289085388
            ],
            "type" : "VEC3"
        },
        {
            "bufferView" : 21,
            "componentType" : 5126,
            "count" : 150,
            "type" : "VEC3"
        },
        {
            "bufferView" : 22,
            "componentType" : 5126,
            "count" : 150,
            "type" : "VEC2"
        },
        {
            "bufferView" : 23,
            "componentType" : 5123,
            "count" : 252,
            "type" : "SCALAR"
        }
    ],
    "bufferViews" : [
        {
            "buffer" : 0,
            "byteLength" : 360,
            "byteOffset" : 0
        },
        {
            "buffer" : 0,
            "byteLength" : 360,
            "byteOffset" : 360
        },
        {
            "buffer" : 0,
            "byteLength" : 240,
            "byteOffset" : 720
        },
        {
            "buffer" : 0,
            "byteLength" : 72,
            "byteOffset" : 960
        },
        {
            "buffer" : 0,
            "byteLength" : 1536,
            "byteOffset" : 1032
        },
        {
            "buffer" : 0,
            "byteLength" : 1536,
            "byteOffset" : 2568
        },
        {
            "buffer" : 0,
            "byteLength" : 1024,
            "byteOffset" : 4104
        },
        {
            "buffer" : 0,
            "byteLength" : 360,
            "byteOffset" : 5128
        },
        {
            "buffer" : 0,
            "byteLength" : 1452,
            "byteOffset" : 5488
        },
        {
            "buffer" : 0,
            "byteLength" : 1452,
            "byteOffset" : 6940
        },
        {
            "buffer" : 0,
            "byteLength" : 968,
            "byteOffset" : 8392
        },
        {
            "buffer" : 0,
            "byteLength" : 360,
            "byteOffset" : 9360
        },
        {
            "buffer" : 0,
            "byteLength" : 6288,
            "byteOffset" : 9720
        },
        {
            "buffer" : 0,
            "byteLength" : 6288,
            "byteOffset" : 16008
        },
        {
            "buffer" : 0,
            "byteLength" : 4192,
            "byteOffset" : 22296
        },
        {
            "buffer" : 0,
            "byteLength" : 1920,
            "byteOffset" : 26488
        },
        {
            "buffer" : 0,
            "byteLength" : 2976,
            "byteOffset" : 28408
        },
        {
            "buffer" : 0,
            "byteLength" : 2976,
            "byteOffset" : 31384
        },
        {
            "buffer" : 0,
            "byteLength" : 1984,
            "byteOffset" : 34360
        },
        {
            "buffer" : 0,
            "byteLength" : 552,
            "byteOffset" : 36344
        },
        {
            "buffer" : 0,
            "byteLength" : 1800,
            "byteOffset" : 36896
        },
        {
            "buffer" : 0,
            "byteLength" : 1800,
            "byteOffset" : 38696
        },
        {
            "buffer" : 0,
            "byteLength" : 1200,
            "byteOffset" : 40496
        },
        {
            "buffer" : 0,
            "byteLength" : 504,
            "byteOffset" : 41696
        }
    ],
    "buffers" : [
        {
            "byteLength" : 42200,
            "uri" : "room05.bin"
        }
    ]
}
