{
    "asset" : {
        "generator" : "Khronos glTF Blender I/O v1.4.40",
        "version" : "2.0"
    },
    "scene" : 0,
    "scenes" : [
        {
            "name" : "Scene",
            "nodes" : [
                0,
                1,
                2
            ]
        }
    ],
    "nodes" : [
        {
            "mesh" : 0,
            "name" : "sofa"
        },
        {
            "mesh" : 1,
            "name" : "lamp",
            "translation" : [
                1.3000000715255737,
                0,
                0
            ]
        },
        {
            "mesh" : 0,
            "name" : "sofa.001",
            "rotation" : [
                0,
                -0.7071067690849304,
                0,
                0.7071068286895752
            ],
            "translation" : [
                1.7000001668930054,
                0,
                1.7000000476837158
            ]
        }
    ],
    "meshes" : [
        {
            "name" : "sofa",
            "primitives" : [
                {
                    "attributes" : {
                        "POSITION" : 0,
                        "NORMAL" : 1,
                        "TEXCOORD_0" : 2
                    },
                    "indices" : 3
                }
            ]
        },
        {
            "name" : "lamp",
            "primitives" : [
                {
                    "attributes" : {
                        "POSITION" : 4,
                        "NORMAL" : 5,
                        "TEXCOORD_0" : 6
                    },
                    "indices" : 7
                }
            ]
        }
    ],
    "accessors" : [
        {
            "bufferView" : 0,
            "componentType" : 5126,
            "count" : 271,
            "max" : [
                0.9813170433044434,
                0.9404289126396179,
                0.40888214111328125
            ],
            "min" : [
                -1.0222053527832031,
                0,
                -0.42932626605033875
            ],
            "type" : "VEC3"
        },
        {
            "bufferView" : 1,
            "componentType" : 5126,
            "count" : 271,
            "type" : "VEC3"
        },
        {
            "bufferView" : 2,
            "componentType" : 5126,
            "count" : 271,
            "type" : "VEC2"
        },
        {
            "bufferView" : 3,
            "componentType" : 5123,
            "count" : 384,
            "type" : "SCALAR"
        },
        {
            "bufferView" : 4,
            "componentType" : 5126,
            "count" : 204,
            "max" : [
                0.1765655130147934,
                1.9974603652954102,
                0.20388032495975494
            ],
            "min" : [
                -0.1765655130147934,
                0,
                -0.20388032495975494
            ],
            "type" : "VEC3"
        },
        {
            "bufferView" : 5,
            "componentType" : 5126,
            "count" : 204,
            "type" : "VEC3"
        },
        {
            "bufferView" : 6,
            "componentType" : 5126,
            "count" : 204,
            "type" : "VEC2"
        },
        {
            "bufferView" : 7,
            "componentType" : 5123,
            "count" : 228,
            "type" : "SCALAR"
        }
    ],
    "bufferViews" : [
        {
            "buffer" : 0,
            "byteLength" : 3252,
            "byteOffset" : 0
        },
        {
            "buffer" : 0,
            "byteLength" : 3252,
            "byteOffset" : 3252
        },
        {
            "buffer" : 0,
            "byteLength" : 2168,
            "byteOffset" : 6504
        },
        {
            "buffer" : 0,
            "byteLength" : 768,
            "byteOffset" : 8672
        },
        {
            "buffer" : 0,
            "byteLength" : 2448,
            "byteOffset" : 9440
        },
        {
            "buffer" : 0,
            "byteLength" : 2448,
            "byteOffset" : 11888
        },
        {
            "buffer" : 0,
            "byteLength" : 1632,
            "byteOffset" : 14336
        },
        {
            "buffer" : 0,
            "byteLength" : 456,
            "byteOffset" : 15968
        }
    ],
    "buffers" : [
        {
            "byteLength" : 16424,
            "uri" : "scene2.bin"
        }
    ]
}
